<svg width="14" height="13" viewBox="0 0 14 13" fill="none" xmlns="http://www.w3.org/2000/svg">
<path d="M1.93865 0.883331C1.34932 0.883331 0.871984 1.36066 0.871984 1.95V11.55C0.679645 11.5473 0.500741 11.6483 0.403777 11.8145C0.306814 11.9806 0.306814 12.1861 0.403777 12.3522C0.500741 12.5183 0.679645 12.6194 0.871984 12.6167H8.33865C8.53099 12.6194 8.70989 12.5183 8.80686 12.3522C8.90382 12.1861 8.90382 11.9806 8.80686 11.8145C8.70989 11.6483 8.53099 11.5473 8.33865 11.55V9.41666H9.93865V10.75C9.93865 11.7746 10.7807 12.6167 11.8053 12.6167C11.8715 12.6155 11.9368 12.6021 11.998 12.5771C12.929 12.4752 13.672 11.7064 13.672 10.75V6.21666C13.672 6.07522 13.6158 5.93959 13.5157 5.83958L11.3824 3.70625C11.3576 3.68141 11.3304 3.65907 11.3012 3.63958L9.70115 2.57291C9.61254 2.51204 9.50761 2.47936 9.40011 2.47916C9.16352 2.47875 8.95493 2.63423 8.88775 2.86108C8.82056 3.08792 8.91083 3.33192 9.10948 3.46041L10.472 4.36875V5.68333C10.472 6.27266 10.9493 6.75 11.5387 6.75H12.6053V10.75C12.6053 11.1984 12.2538 11.55 11.8053 11.55C11.3569 11.55 11.0053 11.1984 11.0053 10.75V9.41666C11.0053 8.8337 10.5216 8.35 9.93865 8.35H8.33865V1.95C8.33865 1.36066 7.86132 0.883331 7.27198 0.883331H1.93865ZM1.93865 1.95H7.27198V5.15H1.93865V1.95Z" fill="#F0F0F0"/>
</svg>
